<?xml version="1.0" encoding="UTF-8" standalone="no"?>
<!-- Created with Inkscape (http://www.inkscape.org/) -->

<svg
   width="20"
   height="20"
   viewBox="0 0 20 20"
   fill="none"
   version="1.1"
   id="svg5"
   inkscape:version="1.2 (dc2aedaf03, 2022-05-15)"
   sodipodi:docname="r.svg"
   xmlns:inkscape="http://www.inkscape.org/namespaces/inkscape"
   xmlns:sodipodi="http://sodipodi.sourceforge.net/DTD/sodipodi-0.dtd"
   xmlns="http://www.w3.org/2000/svg"
   xmlns:svg="http://www.w3.org/2000/svg">
  <sodipodi:namedview
     id="namedview7"
     pagecolor="#ffffff"
     bordercolor="#000000"
     borderopacity="0.25"
     inkscape:showpageshadow="2"
     inkscape:pageopacity="0.0"
     inkscape:pagecheckerboard="0"
     inkscape:deskcolor="#d1d1d1"
     inkscape:document-units="mm"
     showgrid="false"
     inkscape:zoom="0.5946522"
     inkscape:cx="455.72858"
     inkscape:cy="549.90127"
     inkscape:window-width="1680"
     inkscape:window-height="987"
     inkscape:window-x="-8"
     inkscape:window-y="-8"
     inkscape:window-maximized="1"
     inkscape:current-layer="layer1" />
  <defs
     id="defs2" />
  <g
     inkscape:label="Слой 1"
     inkscape:groupmode="layer"
     id="layer1">
    <path
       id="path296"
       style="fill:#000000;stroke-width:0.264583"
       d="m 98.770199,41.351481 c -22.875196,0.134924 -44.04279,3.587378 -44.04279,3.587378 l -2.224671,165.961961 12.458155,1.3348 1.779736,-96.10679 c 0,0 63.334621,12.36783 84.093571,-7.56388 20.75895,-19.931712 19.32525,-34.4869 -0.88986,-55.172343 C 140.46851,43.696299 118.95419,41.23243 98.770199,41.351481 Z m -10.854118,5.020366 v 5.16e-4 c 3.775363,0.08823 7.550944,0.198149 11.321273,0.418579 3.858476,0.25633 7.712186,0.580811 11.529016,1.221631 3.36905,0.330834 6.75632,0.41104 10.12134,0.785999 2.85544,0.412573 5.68428,1.016169 8.43308,1.902726 2.53069,0.834984 5.02884,1.763194 7.58093,2.533695 2.65516,0.893553 5.29604,1.832047 7.80366,3.095419 1.98116,1.097259 3.86954,2.344151 5.3852,4.052466 1.26161,1.416655 2.31026,2.97707 3.03134,4.741312 0.71308,1.774963 1.40815,3.562232 1.69189,5.466333 0.2788,1.820751 0.4942,3.660413 0.4625,5.505607 -0.006,1.860867 -0.0133,3.72139 -0.0408,5.582089 -0.0353,2.146758 -0.0725,4.29556 -0.24185,6.436816 -0.19716,2.182935 -0.45401,4.378893 -1.20509,6.452836 -0.7156,1.849904 -1.64296,3.607423 -3.03031,5.051371 -1.1627,1.329798 -2.49203,2.462258 -3.8685,3.566708 -1.52683,1.1855 -3.07363,2.3452 -4.71754,3.3662 -2.02717,1.16704 -4.07692,2.31114 -6.27248,3.13728 -2.7713,0.97206 -5.58763,1.82548 -8.54625,1.9482 -2.37552,0.0682 -4.75247,0.0288 -7.12877,0.0295 -2.38175,-0.01 -4.76371,-0.0204 -7.1453,-0.0579 -2.35793,-0.0457 -4.71566,-0.11128 -7.0714,-0.22738 -2.04405,-0.10553 -4.08682,-0.19681 -6.13451,-0.14831 -2.67023,0 -5.340134,-0.001 -8.010363,-0.004 -2.198028,-0.003 -4.396493,-0.005 -6.59443,-0.0279 -2.296887,-0.0251 -4.594195,-0.0601 -6.888985,-0.16743 -2.38255,-0.12722 -4.782391,-0.27861 -7.095174,-0.91002 -2.105445,-0.73037 -3.224733,-1.41908 -4.155819,-3.47731 -0.621718,-1.4463 -0.906764,-2.96842 -0.833024,-4.54959 -3.9e-5,-2.03322 1.54e-4,-4.066671 0,-6.099889 -2e-4,-2.123275 -6.36e-4,-4.246362 -0.0021,-6.369637 -0.0014,-2.175894 -0.0025,-4.351885 -0.01033,-6.527767 -0.0097,-2.345314 -0.02225,-4.690644 -0.05736,-7.035746 -0.04243,-2.555689 -0.0953,-5.111678 -0.22686,-7.664648 -0.106855,-2.175671 -0.207323,-4.350062 -0.178283,-6.529318 -0.01972,-1.919573 -0.04041,-3.839506 -0.118339,-5.757788 -0.06674,-1.387139 -0.192069,-2.768788 -0.296623,-4.153235 -0.175359,-2.322012 0.956385,-3.412609 2.126485,-3.278352 0.194048,-0.319741 0.452211,-0.600049 0.672827,-0.903305 0.512854,-0.254486 1.006239,-0.552123 1.538408,-0.76326 0.154794,-0.06142 0.331695,-0.0304 0.497644,-0.04444 1.007421,-0.08524 2.01597,-0.161642 3.024104,-0.237712 2.16389,-0.111547 4.332916,-0.07084 6.498312,-0.148828 2.71742,-0.07188 5.433703,-0.203256 8.152474,-0.211356 z m 49.103459,28.778605 c -0.17159,0.002 -0.34851,0.0061 -0.51469,0.0072 0.19983,0.799983 0.36082,1.609062 0.48369,2.426209 0.014,-0.811074 0.025,-1.622267 0.031,-2.433443 z m -1.41025,0.404109 c -0.32851,0.222916 -0.6526,0.452466 -0.97461,0.684713 0.18759,0.0917 0.39799,0.189992 0.64285,0.298173 0.0325,0.0144 0.0651,0.0285 0.0977,0.04289 -0.0195,-0.39624 -0.72742,-0.17985 -0.21136,-0.641305 0.1462,-0.130735 0.29696,-0.256345 0.44545,-0.384473 z m 13.06949,19.462895 c -0.0811,0.11894 -0.16027,0.238801 -0.24288,0.357084 -0.12786,0.197695 -0.26302,0.389904 -0.39584,0.583944 0.23237,-0.301144 0.4453,-0.615164 0.63872,-0.941028 z m -65.920524,1.072286 c 4e-6,0.03083 -4e-6,0.06167 0,0.0925 0.09757,0.01716 0.195258,0.03351 0.293005,0.04858 -0.09914,-0.04676 -0.196233,-0.09379 -0.293005,-0.141077 z m -0.0041,1.25367 c -0.0069,0.166982 -0.01127,0.333765 0.0041,0.499711 0.0062,0.06688 0.04616,-0.13116 0.03876,-0.19792 -0.01115,-0.100583 -0.02426,-0.201791 -0.04289,-0.301791 z m -5.170227,5.554698 c 0.0023,0.0477 0.003,0.0954 0.0062,0.14315 0.04099,0.22623 0.04451,-0.0251 0.03721,-0.0424 -0.01422,-0.0336 -0.02924,-0.0671 -0.04341,-0.10077 z" />
    <path
       style="fill:#000000;stroke-width:0.264583"
       id="path722"
       d="m 46.975466,140.21989 c 10.413936,-1.33364 20.889137,-1.98124 31.375561,-2.3537 5.759278,-0.17412 11.521541,-0.20107 17.282932,-0.1717 3.081454,-0.0537 6.155101,0.1746 9.231781,0.30395 1.90599,0.0755 0.99357,0.0158 2.73797,0.16782 0,0 -3.12762,-2.30951 -3.12762,-2.30951 v 0 c -1.73385,-0.11754 -0.82726,-0.069 -2.72015,-0.13834 -3.075981,-0.13709 -6.149815,-0.35955 -9.2312,-0.28295 -5.688854,0.0282 -11.376623,0.14476 -17.062034,0.3488 -5.274731,0.20987 -10.547456,0.45409 -15.811807,0.85757 -1.444757,0.11073 -9.688645,0.86328 -11.180421,0.98884 -1.538925,0.12954 -3.079329,0.24084 -4.618993,0.36126 0,0 3.123981,2.22796 3.123981,2.22796 z" />
    <path
       style="fill:#000000;stroke-width:0.264583"
       id="path724"
       d="m 35.552575,167.56693 c 6.594552,-0.23352 13.165908,-0.98442 19.726016,-1.67465 9.051475,-0.96677 18.153372,-1.15618 27.2391,-1.55951 13.440616,-0.69534 26.896419,-1.09893 40.354929,-1.13615 0,0 -2.82034,-2.04544 -2.82034,-2.04544 v 0 c -13.478,0.19248 -26.953923,0.55305 -40.422254,1.10148 -9.109787,0.33798 -18.224471,0.61751 -27.299798,1.54404 -6.635311,0.68794 -13.29118,1.48341 -19.971224,1.44996 0,0 3.193571,2.32027 3.193571,2.32027 z" />
  </g>
</svg>
